HIERARCHY
ROOT Hips
{
	OFFSET 0.000000 88.474243 0.000000
	CHANNELS 6 Xposition Yposition Zposition Zrotation Yrotation Xrotation 
	JOINT Hips_Spine
	{
		OFFSET 0.000000 0.000000 0.000000
		CHANNELS 3 Zrotation Yrotation Xrotation
		JOINT Spine
		{
			OFFSET 0.005100 8.711998 -0.691000
			CHANNELS 3 Zrotation Yrotation Xrotation
			JOINT Spine1
			{
				OFFSET -0.009200 8.660301 -1.275000
				CHANNELS 3 Zrotation Yrotation Xrotation
				JOINT Spine2
				{
					OFFSET 0.006300 9.852501 -1.857000
					CHANNELS 3 Zrotation Yrotation Xrotation
					JOINT Spine2_Neck
					{
						OFFSET 0.000000 0.000000 0.000000
						CHANNELS 3 Zrotation Yrotation Xrotation
						JOINT Neck
						{
							OFFSET 0.016300 11.420799 -0.263300
							CHANNELS 3 Zrotation Yrotation Xrotation
							End Site #name: Head
							{
								OFFSET -0.019200 9.262405 2.362500
							}
						}
					}
					JOINT Spine2_LeftShoulder
					{
						OFFSET 0.000000 0.000000 0.000000
						CHANNELS 3 Zrotation Yrotation Xrotation
						JOINT LeftShoulder
						{
							OFFSET 5.616900 6.732201 -0.345700
							CHANNELS 3 Zrotation Yrotation Xrotation
							JOINT LeftArm
							{
								OFFSET 10.664888 -0.183372 -2.440700
								CHANNELS 3 Zrotation Yrotation Xrotation
								JOINT LeftForeArm
								{
									OFFSET 27.459126 0.000000 0.000000
									CHANNELS 3 Zrotation Yrotation Xrotation
									End Site #name: LeftHand
									{
										OFFSET 21.306858 0.000000 0.000000
									}
								}
							}
						}
					}
					JOINT Spine2_RightShoulder
					{
						OFFSET 0.000000 0.000000 0.000000
						CHANNELS 3 Zrotation Yrotation Xrotation
						JOINT RightShoulder
						{
							OFFSET -5.580300 6.737503 -0.344400
							CHANNELS 3 Zrotation Yrotation Xrotation
							JOINT RightArm
							{
								OFFSET -10.679335 -0.188484 -2.383900
								CHANNELS 3 Zrotation Yrotation Xrotation
								JOINT RightForeArm
								{
									OFFSET -27.503529 0.000000 0.000000
									CHANNELS 3 Zrotation Yrotation Xrotation
									End Site #name: RightHand
									{
										OFFSET -21.306808 0.000000 0.000000
									}
								}
							}
						}
					}
				}
			}
		}
	}
	JOINT Hips_LeftUpLeg
	{
		OFFSET 0.000000 0.000000 0.000000
		CHANNELS 3 Zrotation Yrotation Xrotation
		JOINT LeftUpLeg
		{
			OFFSET 6.857700 -6.739601 0.312100
			CHANNELS 3 Zrotation Yrotation Xrotation
			JOINT LeftLeg
			{
				OFFSET -0.367590 -34.731552 -4.572400
				CHANNELS 3 Zrotation Yrotation Xrotation
				End Site #name: LeftFoot
				{
					OFFSET 0.367590 -34.656704 -6.067400
				}
			}
		}
	}
	JOINT Hips_RightUpLeg
	{
		OFFSET 0.000000 0.000000 0.000000
		CHANNELS 3 Zrotation Yrotation Xrotation
		JOINT RightUpLeg
		{
			OFFSET -6.876100 -6.733299 0.301000
			CHANNELS 3 Zrotation Yrotation Xrotation
			JOINT RightLeg
			{
				OFFSET 0.347353 -34.795158 -4.515900
				CHANNELS 3 Zrotation Yrotation Xrotation
				End Site #name: RightFoot
				{
					OFFSET -0.347353 -34.589367 -6.070300
				}
			}
		}
	}
}
MOTION
Frames: 14
Frame Time: 0.041667
-52.236977 87.005959 17.317780 9.944472 64.762260 -21.051668 0.000000 -0.000000 0.000000 -0.409640 8.406731 -29.321153 -0.824047 -31.280134 -9.533761 0.000000 0.000000 0.000000 -7.826334 -14.312527 -5.155192 -76.608622 10.996261 -19.540747 -12.622236 -3.771199 -2.341402 -92.685202 -16.103332 3.200450 -165.318275 51.570021 -127.695630 179.231259 -27.043548 176.216807 -16.745366 -14.029255 9.834814 66.476551 -6.869166 -14.531608 46.494344 43.070658 -131.184286 -179.706347 18.887834 179.295899 -0.000000 -0.000000 0.000000 45.339386 -15.058481 29.483123 66.244333 20.234608 124.918515 -0.000000 0.000000 0.000000 90.484082 16.228910 4.375829 -23.651734 23.080977 -59.333636 
-53.454601 89.725365 17.959333 9.687698 65.063758 -21.271785 0.000000 -0.000000 0.000000 -0.405712 8.295670 -28.885508 -0.659787 -31.883818 -10.169308 0.000000 0.000000 0.000000 -7.947587 -14.604876 -5.365801 -76.837171 11.076736 -19.734981 -13.039871 -3.717373 -2.513615 -92.599245 -16.253422 3.297751 -165.289360 51.701686 -127.569642 179.266016 -26.827187 176.224066 -17.098200 -14.124095 10.256750 67.572706 -7.700215 -15.594284 47.046169 42.973583 -130.695715 -179.654443 19.492349 179.205323 -0.000000 -0.000000 0.000000 45.958890 -15.344639 29.378094 67.424604 19.936073 125.661979 -0.000000 0.000000 0.000000 90.206477 16.628043 3.962792 -23.480737 23.114067 -59.095969 
-54.726440 92.466064 18.629713 9.426724 65.579982 -21.464908 0.000000 -0.000000 0.000000 -0.345786 8.168717 -28.262887 -0.503275 -32.503165 -10.790058 0.000000 0.000000 0.000000 -8.059789 -14.928759 -5.615325 -77.009315 11.036262 -19.933505 -13.473370 -3.648956 -2.663769 -92.483046 -16.388199 3.368344 -165.311745 51.821414 -127.483633 179.288998 -26.626023 176.233227 -17.464429 -14.243634 10.701115 68.772666 -8.457976 -16.537904 47.548908 42.972465 -130.252317 -179.583100 20.019541 179.100719 -0.000000 -0.000000 0.000000 46.646785 -15.713348 28.963913 68.561868 19.546109 126.437274 -0.000000 0.000000 0.000000 89.940857 17.127523 3.317096 -23.246078 23.121541 -58.667267 
-56.054180 95.219734 19.321218 9.144463 66.299203 -21.622497 0.000000 -0.000000 0.000000 -0.317547 7.959049 -27.534210 -0.342514 -33.158961 -11.407003 0.000000 0.000000 0.000000 -8.152878 -15.306190 -5.926290 -77.106990 10.866392 -20.135263 -13.941469 -3.558881 -2.784083 -92.286174 -16.514335 3.375025 -165.411052 51.965747 -127.417836 179.299526 -26.393446 176.244151 -17.834728 -14.394670 11.150089 70.082504 -9.055185 -17.393477 47.974782 43.093564 -129.885431 -179.490625 20.445880 178.991188 -0.000000 -0.000000 0.000000 47.389288 -16.116224 28.297051 69.537012 19.160886 127.105234 -0.000000 0.000000 0.000000 89.837210 17.680260 2.544343 -22.948190 23.143323 -58.114840 
-57.437298 97.978355 20.025080 8.855013 67.169960 -21.741641 0.000000 -0.000000 0.000000 -0.282799 7.689149 -26.679367 -0.213867 -33.828772 -11.964228 0.000000 0.000000 0.000000 -8.245637 -15.720505 -6.277867 -77.132379 10.560906 -20.366311 -14.435285 -3.453130 -2.864122 -92.022308 -16.617287 3.332151 -165.553239 52.111625 -127.362534 179.300788 -26.138607 176.261786 -18.208628 -14.575601 11.607227 71.482836 -9.423141 -18.109740 48.333352 43.344340 -129.596278 -179.385903 20.728842 178.873454 -0.000000 -0.000000 0.000000 48.151914 -16.584410 27.497607 70.261462 18.790633 127.607090 -0.000000 -0.000000 0.000000 89.765677 18.521265 1.426848 -22.527690 23.162462 -57.347884 
-58.862888 100.742081 20.732645 8.570980 68.224687 -21.780028 0.000000 -0.000000 0.000000 -0.301902 7.409335 -25.889290 -0.140344 -34.462046 -12.573402 0.000000 0.000000 0.000000 -8.307656 -16.164841 -6.640236 -77.078700 10.144043 -20.598356 -14.926520 -3.333381 -2.923847 -91.674084 -16.691353 3.220781 -165.795131 52.256161 -127.346324 179.291597 -25.908719 176.282711 -18.570118 -14.759446 12.032487 73.002847 -9.598063 -18.713214 48.611240 43.759020 -129.371744 -179.275659 20.889447 178.751435 -0.000000 -0.000000 0.000000 48.907366 -17.111443 26.534744 70.678308 18.512301 127.979426 -0.000000 -0.000000 0.000000 89.633120 19.607195 0.069725 -22.002845 23.256075 -56.552881 
-60.318230 103.517952 21.434767 8.280751 69.433070 -21.768351 0.000000 -0.000000 0.000000 -0.303219 7.112217 -25.082485 -0.083858 -35.080190 -13.062076 0.000000 0.000000 0.000000 -8.322449 -16.627443 -7.012575 -76.939368 9.613865 -20.897891 -15.403424 -3.200928 -2.937480 -91.227505 -16.723654 3.031139 -166.062146 52.435445 -127.320492 179.279248 -25.777082 176.307844 -18.901698 -14.926184 12.411189 74.479069 -9.587246 -19.155168 48.806068 44.265704 -129.254599 -179.150969 20.962195 178.628674 -0.000000 -0.000000 0.000000 49.638081 -17.782871 25.346318 70.756282 18.452844 128.098684 -0.000000 -0.000000 0.000000 89.467256 20.649283 -1.018571 -21.441725 23.314391 -56.014086 
-61.792282 106.295982 22.122215 8.027539 70.733701 -21.688743 0.000000 -0.000000 0.000000 -0.368151 6.811608 -24.316366 -0.052750 -35.636289 -13.405064 0.000000 0.000000 0.000000 -8.311345 -17.057398 -7.348301 -76.703595 9.013217 -21.305724 -15.828007 -3.054847 -2.921093 -90.697273 -16.704329 2.751395 -166.326029 52.577073 -127.275815 179.255500 -25.631474 176.345725 -19.201176 -15.067832 12.754324 75.922295 -9.454125 -19.493056 48.938108 44.845622 -129.227509 -179.012085 20.968692 178.509388 -0.000000 -0.000000 0.000000 50.347865 -18.432210 24.078032 70.466172 18.449119 128.085999 -0.000000 -0.000000 0.000000 89.371023 21.828637 -1.863865 -20.920449 23.347059 -55.836120 
-63.274696 109.076775 22.783195 7.814499 72.153804 -21.492530 0.000000 -0.000000 0.000000 -0.438101 6.581343 -23.813515 -0.024111 -36.122563 -13.609687 0.000000 0.000000 0.000000 -8.269344 -17.446816 -7.637319 -76.340269 8.349107 -21.783387 -16.193931 -2.914615 -2.823263 -90.038010 -16.658751 2.406018 -166.563522 52.679772 -127.192490 179.209864 -25.543162 176.387623 -19.429084 -15.166264 13.044939 77.294816 -9.180718 -19.670452 48.984343 45.475257 -129.304645 -178.878840 21.140600 178.371778 -0.000000 -0.000000 0.000000 50.858515 -19.062662 22.721228 69.946107 18.587183 127.822974 -0.000000 -0.000000 0.000000 89.427692 23.050867 -2.262774 -20.360621 23.400791 -55.954665 
-64.761375 111.865814 23.424513 7.706414 73.589529 -21.077608 0.000000 -0.000000 0.000000 -0.280552 6.476371 -23.540875 -0.014565 -36.499606 -13.630450 0.000000 0.000000 0.000000 -8.198051 -17.805066 -7.911778 -75.837957 7.603515 -22.303592 -16.471708 -2.787782 -2.626031 -89.286816 -16.575896 2.033047 -166.805078 52.765075 -127.073706 179.153730 -25.611630 176.422336 -19.575499 -15.215436 13.246783 78.495784 -8.750891 -19.656143 49.013205 46.035210 -129.441911 -178.768602 21.492573 178.217344 -0.000000 -0.000000 0.000000 51.173590 -19.658882 21.516247 69.183757 18.849653 127.300325 -0.000000 -0.000000 0.000000 89.514531 24.388578 -2.573953 -19.916562 23.476871 -56.194131 
-66.242599 114.676575 24.053694 7.599692 75.120139 -20.567709 0.000000 -0.000000 0.000000 0.000824 6.441051 -23.468382 0.006582 -36.767491 -13.534498 0.000000 0.000000 0.000000 -8.084483 -18.114953 -8.167458 -75.220799 6.797581 -22.875054 -16.633454 -2.657976 -2.295256 -88.417542 -16.426800 1.595385 -167.002394 52.875443 -126.890871 179.104838 -25.751740 176.456168 -19.635031 -15.201048 13.405139 79.649830 -8.261403 -19.540690 49.039201 46.509059 -129.632474 -178.676953 21.962499 178.057492 -0.000000 -0.000000 0.000000 51.522345 -20.166697 20.417929 68.215943 19.186821 126.546679 -0.000000 -0.000000 0.000000 89.653631 26.061865 -3.077933 -19.683360 23.606510 -56.292846 
-67.711632 117.521721 24.673859 7.580608 76.778813 -19.904020 0.000000 -0.000000 0.000000 0.323771 6.455490 -23.555321 0.006712 -36.870106 -13.279672 0.000000 0.000000 0.000000 -7.976287 -18.311257 -8.404736 -74.687717 6.010063 -23.333810 -16.708005 -2.533343 -1.877994 -87.453667 -16.233070 1.144926 -167.133253 53.004711 -126.618345 179.064134 -26.041248 176.492623 -19.587546 -15.092362 13.489520 80.765078 -7.672683 -19.308560 49.046600 46.987378 -129.820535 -178.611897 22.536452 177.888687 -0.000000 -0.000000 0.000000 52.134737 -20.334631 19.338816 67.048756 19.574079 125.554452 -0.000000 -0.000000 0.000000 89.849038 28.154782 -3.920703 -19.526303 23.869611 -56.045482 
-69.160789 120.406883 25.290094 7.631406 78.518559 -19.142401 0.000000 -0.000000 0.000000 0.543885 6.504135 -23.597505 0.055409 -36.881523 -13.075082 0.000000 0.000000 0.000000 -7.903691 -18.476721 -8.609373 -74.310634 5.208677 -23.686662 -16.710787 -2.413423 -1.376329 -86.382272 -16.000031 0.671839 -167.265826 53.160405 -126.302502 179.022501 -26.538126 176.524349 -19.492565 -14.925544 13.524595 81.851939 -7.097624 -19.071579 49.112234 47.433696 -129.910527 -178.558457 23.130801 177.704907 -0.000000 -0.000000 0.000000 52.913843 -20.351962 18.179009 65.667264 19.966577 124.419422 -0.000000 -0.000000 0.000000 90.362814 30.623396 -4.873214 -19.382387 24.266560 -55.583737 
-70.581848 123.315880 25.903929 7.588667 80.331241 -18.441976 0.000000 -0.000000 0.000000 0.642936 6.524378 -23.629215 0.134693 -36.981237 -12.969220 0.000000 0.000000 0.000000 -7.909304 -18.648623 -8.707244 -74.145369 4.581388 -24.166029 -16.732721 -2.270409 -0.814251 -85.005029 -15.586828 -0.002117 -167.362337 53.372481 -125.909213 178.992158 -27.175253 176.560951 -19.444137 -14.690323 13.695082 82.727352 -6.593280 -18.840749 49.327779 47.929392 -129.758059 -178.517538 23.789466 177.523541 0.000000 -0.000000 0.000000 53.749243 -20.233611 16.794399 64.136637 20.385176 123.235508 -0.000000 -0.000000 0.000000 91.260407 33.183894 -5.791165 -19.062753 24.801699 -54.846557 
